# xmcd
#
# Track frame offsets:
# 150
# 13701
# 30339
# 41464
#
# Disc length: 744 seconds
#
#
# Revision: 0
# Processed by: cddbd v1.4PL0 Copyright (c) Steve Scherf et al.
# Submitted via: FreeRIP 2.52 
#
DISCID=2102e604
DTITLE=Henk wijngaard - Altijd onderweg (Single)
DYEAR=2003
DGENRE=Country
TTITLE0=Altijd onderweg naar nergens heen
TTITLE1=Verslaafd aan de weg
TTITLE2=Als een wals
TTITLE3=Als ik wakker wordt
EXTD=
EXTT0=
EXTT1=
EXTT2=
EXTT3=
PLAYORDER=
